<?xml version="1.0" encoding="UTF-8"?>
<svg xmlns="http://www.w3.org/2000/svg" viewBox="0 0 260 280" width="260" height="280">
  <title>Oveja Negra Gentleman Studio</title>
  <!-- Central blade cluster -->
  <g fill="currentColor" stroke="none">
    <path d="M 130 26 L 134 150 L 130 254 L 126 150 Z" />
    <path d="M 121 48 L 125 150 L 121 232 L 117 150 Z" />
    <path d="M 139 48 L 143 150 L 139 232 L 135 150 Z" />
  </g>
  <g fill="none" stroke="currentColor" stroke-width="4" stroke-linecap="butt" stroke-linejoin="miter" stroke-miterlimit="3">
    <path d="M 130 56 L 100 56 L 100 38 L 28 38 L 28 112 L 90 112 L 90 56" />
    <path d="M 48 56 L 48 92 L 78 92 L 78 70 L 60 70 L 60 84" />
    <path d="M 130 56 L 160 56 L 160 38 L 232 38 L 232 112 L 170 112 L 170 56" />
    <path d="M 212 56 L 212 92 L 182 92 L 182 70 L 200 70 L 200 84" />
  </g>
  <g fill="none" stroke="currentColor" stroke-width="3.5" stroke-linecap="butt" stroke-linejoin="miter" stroke-miterlimit="3">
    <path d="M 121 232 L 96 232 L 96 256 L 70 256 L 70 240 L 88 240 L 88 250" />
    <path d="M 139 232 L 164 232 L 164 256 L 190 256 L 190 240 L 172 240 L 172 250" />
  </g>
</svg>
