<?xml version="1.0" encoding="UTF-8"?>
<svg xmlns="http://www.w3.org/2000/svg" viewBox="0 0 1200 630" width="1200" height="630">
  <defs>
    <radialGradient id="vignette" cx="50%" cy="40%" r="80%">
      <stop offset="0%" stop-color="#0e0c14"/>
      <stop offset="60%" stop-color="#07060a"/>
      <stop offset="100%" stop-color="#000000"/>
    </radialGradient>
    <linearGradient id="goldLine" x1="0" y1="0" x2="1" y2="0">
      <stop offset="0%" stop-color="#c9a35b" stop-opacity="0"/>
      <stop offset="50%" stop-color="#c9a35b" stop-opacity="1"/>
      <stop offset="100%" stop-color="#c9a35b" stop-opacity="0"/>
    </linearGradient>
  </defs>

  <!-- Background -->
  <rect width="1200" height="630" fill="url(#vignette)"/>

  <!-- Subtle grain dots -->
  <g fill="#ece5d6" opacity="0.03">
    <circle cx="120" cy="80" r="1.2"/>
    <circle cx="320" cy="180" r="1"/>
    <circle cx="540" cy="60" r="1.4"/>
    <circle cx="780" cy="140" r="1"/>
    <circle cx="980" cy="220" r="1.2"/>
    <circle cx="1080" cy="80" r="1"/>
    <circle cx="200" cy="500" r="1.2"/>
    <circle cx="420" cy="560" r="1"/>
    <circle cx="640" cy="540" r="1.4"/>
    <circle cx="900" cy="500" r="1"/>
    <circle cx="1100" cy="540" r="1.2"/>
  </g>

  <!-- Logo (left) - scaled from favicon.svg viewBox 280x280 -->
  <g transform="translate(80 165) scale(1.07)">
    <rect width="280" height="280" fill="#07060a" stroke="#c9a35b" stroke-width="1.5" rx="44" ry="44"/>
    <g transform="translate(10 0)">
      <g fill="#ece5d6" stroke="none">
        <path d="M 130 26 L 134 150 L 130 254 L 126 150 Z"/>
        <path d="M 121 48 L 125 150 L 121 232 L 117 150 Z"/>
        <path d="M 139 48 L 143 150 L 139 232 L 135 150 Z"/>
      </g>
      <g fill="none" stroke="#ece5d6" stroke-width="4.5" stroke-linecap="butt" stroke-linejoin="miter" stroke-miterlimit="3">
        <path d="M 130 56 L 100 56 L 100 38 L 28 38 L 28 112 L 90 112 L 90 56"/>
        <path d="M 48 56 L 48 92 L 78 92 L 78 70 L 60 70 L 60 84"/>
        <path d="M 130 56 L 160 56 L 160 38 L 232 38 L 232 112 L 170 112 L 170 56"/>
        <path d="M 212 56 L 212 92 L 182 92 L 182 70 L 200 70 L 200 84"/>
      </g>
      <g fill="none" stroke="#ece5d6" stroke-width="4" stroke-linecap="butt" stroke-linejoin="miter" stroke-miterlimit="3">
        <path d="M 121 232 L 96 232 L 96 256 L 70 256 L 70 240 L 88 240 L 88 250"/>
        <path d="M 139 232 L 164 232 L 164 256 L 190 256 L 190 240 L 172 240 L 172 250"/>
      </g>
    </g>
  </g>

  <!-- Text block (right) -->
  <g transform="translate(465 200)">
    <text x="0" y="0" fill="#c9a35b" font-family="Georgia, 'Times New Roman', serif" font-size="20" letter-spacing="6" font-weight="500">EST · ARMENIA · QUINDÍO</text>

    <text x="0" y="80" fill="#ece5d6" font-family="Georgia, 'Times New Roman', serif" font-size="92" font-weight="400" font-style="italic">Oveja Negra</text>
    <text x="0" y="150" fill="#ece5d6" font-family="Helvetica, Arial, sans-serif" font-size="32" font-weight="300" letter-spacing="14" opacity="0.9">GENTLEMAN STUDIO</text>

    <line x1="0" y1="180" x2="640" y2="180" stroke="url(#goldLine)" stroke-width="1"/>

    <text x="0" y="220" fill="#ece5d6" opacity="0.78" font-family="Helvetica, Arial, sans-serif" font-size="22" font-weight="300">Exclusividad solo para hombres.</text>
    <text x="0" y="252" fill="#ece5d6" opacity="0.55" font-family="Helvetica, Arial, sans-serif" font-size="18" font-weight="300">Estudio privado · Ritual sin prisa · Premium</text>
  </g>

  <!-- Bottom-right star block -->
  <g transform="translate(1010 555)" fill="#c9a35b">
    <text x="0" y="0" font-family="Georgia, serif" font-size="22" font-weight="500">★ ★ ★ ★ ★</text>
    <text x="0" y="22" fill="#ece5d6" opacity="0.6" font-family="Helvetica, Arial, sans-serif" font-size="13" font-weight="300" letter-spacing="2">5.0 · 999+ RESEÑAS</text>
  </g>
</svg>
